<?xml version="1.0" standalone="no"?>
<!DOCTYPE svg PUBLIC "-//W3C//DTD SVG 20010904//EN"
 "http://www.w3.org/TR/2001/REC-SVG-20010904/DTD/svg10.dtd">
<svg version="1.0" xmlns="http://www.w3.org/2000/svg"
 width="1018.000000pt" height="1018.000000pt" viewBox="0 0 1018.000000 1018.000000"
 preserveAspectRatio="xMidYMid meet">
<metadata>
Created by potrace 1.14, written by Peter Selinger 2001-2017
</metadata>
<g transform="translate(0.000000,1018.000000) scale(0.100000,-0.100000)"
fill="#000000" stroke="none">
<path d="M4940 9761 c-74 -54 -304 -220 -510 -370 -206 -149 -420 -304 -475
-344 -98 -72 -997 -724 -1299 -942 -84 -60 -239 -173 -345 -250 -249 -181
-511 -370 -858 -621 -269 -195 -797 -578 -838 -608 -11 -8 -105 -76 -210 -152
-377 -272 -365 -263 -355 -287 5 -12 25 -74 45 -137 20 -63 39 -122 42 -130 3
-8 7 -19 9 -25 1 -5 39 -122 84 -260 145 -446 226 -693 350 -1075 67 -206 132
-406 145 -445 12 -38 71 -218 130 -400 59 -181 118 -361 130 -400 13 -38 76
-232 140 -430 64 -198 151 -463 193 -590 42 -126 77 -234 78 -240 3 -17 75
-239 84 -260 4 -11 22 -63 38 -115 17 -52 63 -194 102 -315 40 -121 73 -224
74 -230 3 -12 175 -543 183 -565 4 -8 7 -17 8 -20 3 -13 58 -180 71 -218 l16
-42 3111 0 3112 0 38 118 c21 64 74 227 118 362 44 135 82 250 83 255 1 6 44
138 95 295 51 157 106 328 123 380 16 52 34 104 39 115 4 11 40 121 80 245 39
124 93 289 120 368 26 78 48 145 48 147 0 3 55 173 121 378 67 204 147 449
177 542 30 94 77 235 103 315 26 80 68 208 93 285 24 77 81 250 125 385 188
578 324 994 363 1115 23 72 77 238 120 370 74 227 78 241 61 256 -13 14 -883
646 -1607 1169 -66 47 -367 266 -670 485 -302 220 -662 481 -800 580 -137 100
-392 284 -565 410 -173 126 -331 240 -352 254 -20 14 -116 84 -215 156 -575
419 -806 585 -812 585 -3 0 -67 -44 -141 -99z"/>
</g>
</svg>
