<?xml version="1.0" standalone="no"?>
<!DOCTYPE svg PUBLIC "-//W3C//DTD SVG 20010904//EN"
 "http://www.w3.org/TR/2001/REC-SVG-20010904/DTD/svg10.dtd">
<svg version="1.0" xmlns="http://www.w3.org/2000/svg"
 width="960.000000pt" height="960.000000pt" viewBox="0 0 960.000000 960.000000"
 preserveAspectRatio="xMidYMid meet">
<metadata>
Created by potrace 1.14, written by Peter Selinger 2001-2017
</metadata>
<g transform="translate(0.000000,960.000000) scale(0.100000,-0.100000)"
fill="#000000" stroke="none">
<path d="M900 9585 c-305 -61 -585 -262 -741 -530 -75 -131 -129 -293 -145
-438 -9 -81 -9 -7543 0 -7625 10 -97 52 -242 95 -337 169 -365 509 -605 911
-643 41 -4 1763 -6 3825 -6 3461 1 3757 3 3843 18 216 39 409 137 570 290 166
158 260 321 317 550 l25 103 0 3834 c0 3767 -1 3836 -20 3927 -92 436 -431
766 -885 861 -81 17 -7710 13 -7795 -4z"/>
</g>
</svg>
